<?xml version="1.0" encoding="UTF-8" standalone="no"?>
<svg xmlns="http://www.w3.org/2000/svg" width="200" height="200" version="1.1">
    <g style="fill:#ffffff" transform="translate(-425,0)">
        <rect y="70" x="495" height="60" width="60"/>
        <rect y="35" x="460" height="20" width="60"/>
        <rect y="35" x="460" height="60" width="20"/>
        <rect y="105" x="460" height="60" width="20"/>
        <rect y="145" x="460" height="20" width="60"/>
        <rect y="145" x="530" height="20" width="60"/>
        <rect y="105" x="570" height="60" width="20"/>
        <rect y="35" x="570" height="60" width="20"/>
        <rect y="35" x="530" height="20" width="60"/>
        <rect y="0" x="495" height="20" width="60"/>
        <rect y="0" x="425" height="20" width="60"/>
        <rect y="0" x="565" height="20" width="60"/>
        <rect y="0" x="425" height="60" width="20"/>
        <rect y="0" x="605" height="60" width="20"/>
        <rect y="70" x="425" height="60" width="20"/>
        <rect y="70" x="605" height="60" width="20"/>
        <rect y="140" x="605" height="60" width="20"/>
        <rect y="180" x="495" height="20" width="60"/>
        <rect y="180" x="565" height="20" width="60"/>
        <rect y="180" x="425" height="20" width="60"/>
        <rect y="140" x="425" height="60" width="20"/>
    </g>
</svg> 