<?xml version="1.0" standalone="no"?>
<!DOCTYPE svg PUBLIC "-//W3C//DTD SVG 20010904//EN"
        "http://www.w3.org/TR/2001/REC-SVG-20010904/DTD/svg10.dtd">
<svg version="1.0" xmlns="http://www.w3.org/2000/svg"
     width="696.000000pt" height="696.000000pt" viewBox="0 0 696.000000 696.000000"
     preserveAspectRatio="xMidYMid meet">
    <metadata>
        Created by potrace 1.11, written by Peter Selinger 2001-2013
    </metadata>
    <g transform="translate(0.000000,696.000000) scale(0.100000,-0.100000)"
       fill="#000000" stroke="none">
        <path d="M3 6043 l2 -888 309 0 310 0 -1 575 -1 575 562 5 561 5 1 308 1 307
-873 0 -873 0 2 -887z"/>
        <path d="M2651 6915 c-4 -5 -7 -145 -7 -310 l1 -300 870 0 870 0 0 309 0 309
-863 1 c-565 1 -866 -2 -871 -9z"/>
        <path d="M5159 6895 c0 -36 0 -213 0 -430 l1 -160 582 1 c321 1 585 -2 588 -6
3 -5 5 -258 4 -564 l0 -555 251 0 c138 0 255 0 260 -1 6 -1 13 -1 18 0 4 1 26
3 49 3 l42 2 0 863 c1 475 -1 868 -4 873 -3 4 -400 7 -898 6 l-892 -2 -1 -30z"/>
        <path d="M1204 5928 c-4 -5 -5 -486 -3 -658 1 -19 0 -46 0 -60 -2 -24 -3 -259
-2 -290 0 -8 1 -51 0 -95 0 -44 0 -91 0 -105 0 -14 0 -79 0 -145 0 -66 0 -126
0 -132 1 -7 1 -48 1 -90 0 -77 1 -158 3 -178 0 -7 109 -10 306 -10 l306 0 5
575 5 575 560 0 560 0 0 308 c1 269 -1 307 -15 308 -92 5 -1723 2 -1726 -3z"/>
        <path d="M4076 5915 c-2 -5 -3 -145 -2 -310 l1 -300 575 0 575 0 2 -90 c1 -49
2 -304 2 -565 l1 -475 305 0 c298 0 306 1 310 20 9 36 0 1713 -8 1722 -13 12
-1756 10 -1761 -2z"/>
        <path d="M2515 4600 c-2 -4 -4 -475 -4 -1048 l0 -1042 694 -1 c382 0 823 0
980 0 157 0 317 0 355 0 l70 1 0 1048 0 1049 -1045 0 c-575 0 -1048 -3 -1050
-7z"/>
        <path d="M0 3558 l0 -873 302 1 c167 1 306 2 310 3 4 1 8 393 7 871 l0 870
-309 0 -310 0 0 -872z"/>
        <path d="M6340 3543 l0 -873 310 0 310 0 -2 873 -3 872 -307 0 -308 0 0 -872z"/>
        <path d="M5236 2860 c-2 -3 -4 -252 -5 -555 -1 -302 -3 -559 -5 -570 -3 -20
-11 -20 -566 -20 l-563 0 -1 -303 c-1 -167 2 -306 6 -308 3 -2 396 -6 872 -9
l866 -4 1 22 c3 62 11 1658 9 1732 0 20 -7 20 -306 20 -168 1 -307 -1 -308 -5z"/>
        <path d="M1165 2820 c-2 -8 -4 -51 -3 -95 0 -44 -1 -84 -2 -90 -1 -5 -2 -14 0
-20 2 -14 2 -288 0 -300 -1 -5 -2 -14 0 -20 2 -14 2 -288 0 -300 -1 -5 -2 -14
-1 -20 3 -15 3 -528 1 -540 -1 -5 -2 -14 -1 -20 1 -5 2 -81 2 -168 l1 -157
896 4 c493 2 899 4 902 5 5 1 4 239 0 251 -1 3 -1 10 0 15 6 27 5 127 -1 137
-4 6 -3 22 2 35 5 15 5 23 -2 23 -6 0 -7 5 -3 11 10 18 7 131 -4 138 -6 3
-272 5 -591 5 l-581 -1 0 561 0 561 -305 0 c-263 0 -306 -2 -310 -15z"/>
        <path d="M6401 1805 c-1 -6 -16 -9 -34 -7 l-34 4 -2 -374 c-1 -205 -3 -463 -4
-573 l-2 -200 -567 2 -566 1 -1 -309 -2 -309 23 1 c13 0 404 -3 870 -6 637 -4
848 -3 854 6 4 7 8 287 10 623 1 336 4 725 5 864 1 139 -1 256 -5 260 -4 4
-83 8 -174 8 -92 1 -180 3 -197 4 -16 1 -34 1 -40 0 -35 -7 -126 -3 -129 5 -3
6 -5 6 -5 0z"/>
        <path d="M30 1782 l-25 -3 -1 -869 c-1 -786 1 -870 15 -871 93 -5 614 -2 618
4 2 4 13 3 23 -3 10 -5 28 -7 39 -2 11 4 54 5 96 2 42 -3 80 -1 85 4 7 7 10 6
10 -2 0 -7 7 -9 22 -3 12 4 39 5 60 1 21 -4 41 -4 43 1 3 4 15 5 28 3 26 -6
109 -6 115 1 3 2 12 0 21 -5 10 -5 23 -5 29 -1 7 4 33 5 57 1 25 -4 45 -3 45
2 0 5 12 5 27 2 15 -4 32 -7 38 -6 29 5 193 4 201 0 5 -3 18 -3 29 -1 11 2 47
5 80 6 l60 2 1 308 0 308 -220 -1 c-122 0 -311 0 -421 -1 -411 -1 -467 -1
-473 6 -4 3 -8 255 -9 558 -1 304 -2 554 -2 557 -1 5 -548 7 -591 2z"/>
        <path d="M4057 664 c-3 -3 -322 -5 -709 -5 l-704 1 0 -310 0 -310 26 0 c14 0
33 0 43 0 9 0 24 0 32 0 8 0 21 0 28 0 6 -1 46 0 87 0 41 0 84 -1 95 -3 11 -2
33 -1 50 3 16 3 45 3 63 -1 17 -3 32 -4 32 0 0 6 58 5 95 -2 11 -2 34 -1 52 4
18 4 35 3 38 -2 3 -4 16 -4 28 0 12 5 32 5 45 0 12 -5 22 -5 22 0 0 5 17 5 38
1 21 -4 47 -4 58 0 10 4 28 4 39 0 11 -4 34 -4 52 1 18 4 35 3 38 -2 3 -4 16
-4 28 0 12 5 32 5 45 0 14 -5 22 -5 22 2 0 6 4 8 9 5 5 -4 26 -6 48 -6 72 0
123 0 136 0 6 -1 46 0 87 0 41 0 84 -1 94 -3 11 -2 33 -1 50 3 17 3 46 3 64
-1 17 -4 32 -4 32 0 0 3 19 5 42 3 43 -3 51 -3 100 -1 l27 0 0 310 -1 309
-153 -1 c-84 -1 -158 1 -163 5 -5 3 -12 3 -15 0z"/>
    </g>
</svg>
